<?xml version="1.0" encoding="UTF-8"?>
<svg xmlns="http://www.w3.org/2000/svg" xmlns:xlink="http://www.w3.org/1999/xlink" viewBox="0 0 32 32" width="32px" height="32px">
<g id="surface21464926">
<path style=" stroke:none;fill-rule:nonzero;fill:rgb(70.588237%,20.784314%,20.784314%);fill-opacity:1;" d="M 22.023438 1.273438 C 21.359375 1.273438 20.714844 1.621094 20.359375 2.234375 C 19.832031 3.152344 20.144531 4.328125 21.0625 4.859375 C 21.363281 5.03125 21.695312 5.113281 22.019531 5.113281 C 22.683594 5.113281 23.332031 4.769531 23.6875 4.15625 C 24.214844 3.238281 23.902344 2.0625 22.984375 1.53125 C 22.679688 1.359375 22.351562 1.273438 22.023438 1.273438 Z M 11.039062 4.160156 C 10.421875 4.160156 9.921875 4.660156 9.921875 5.28125 C 9.921875 5.898438 10.421875 6.398438 11.039062 6.398438 C 11.660156 6.398438 12.160156 5.898438 12.160156 5.28125 C 12.160156 4.660156 11.660156 4.160156 11.039062 4.160156 Z M 7.679688 4.480469 C 6.972656 4.480469 6.398438 5.054688 6.398438 5.761719 C 6.398438 6.46875 6.972656 7.039062 7.679688 7.039062 C 8.386719 7.039062 8.960938 6.46875 8.960938 5.761719 C 8.960938 5.054688 8.386719 4.480469 7.679688 4.480469 Z M 14.078125 4.480469 C 13.550781 4.480469 13.121094 4.910156 13.121094 5.441406 C 13.121094 5.96875 13.550781 6.398438 14.078125 6.398438 C 14.609375 6.398438 15.039062 5.96875 15.039062 5.441406 C 15.039062 4.910156 14.609375 4.480469 14.078125 4.480469 Z M 16.640625 5.121094 C 16.109375 5.121094 15.679688 5.550781 15.679688 6.078125 C 15.679688 6.609375 16.109375 7.039062 16.640625 7.039062 C 17.171875 7.039062 17.601562 6.609375 17.601562 6.078125 C 17.601562 5.550781 17.171875 5.121094 16.640625 5.121094 Z M 23.398438 6.082031 C 22.515625 6.082031 21.796875 6.800781 21.796875 7.683594 C 21.796875 8.566406 22.515625 9.285156 23.398438 9.285156 C 24.28125 9.285156 24.996094 8.566406 24.996094 7.683594 C 24.996094 6.800781 24.28125 6.082031 23.398438 6.082031 Z M 18.558594 6.398438 C 18.207031 6.398438 17.921875 6.6875 17.921875 7.039062 C 17.921875 7.394531 18.207031 7.679688 18.558594 7.679688 C 18.914062 7.679688 19.199219 7.394531 19.199219 7.039062 C 19.199219 6.6875 18.914062 6.398438 18.558594 6.398438 Z M 27.363281 6.894531 C 26.480469 6.894531 25.761719 7.613281 25.761719 8.496094 C 25.761719 9.378906 26.480469 10.09375 27.363281 10.09375 C 28.246094 10.09375 28.960938 9.378906 28.960938 8.496094 C 28.960938 7.613281 28.246094 6.894531 27.363281 6.894531 Z M 11.519531 7.359375 C 10.902344 7.359375 10.398438 7.863281 10.398438 8.480469 C 10.398438 9.097656 10.902344 9.601562 11.519531 9.601562 C 12.136719 9.601562 12.640625 9.097656 12.640625 8.480469 C 12.640625 7.863281 12.136719 7.359375 11.519531 7.359375 Z M 8.320312 7.679688 C 7.613281 7.679688 7.039062 8.253906 7.039062 8.960938 C 7.039062 9.667969 7.613281 10.238281 8.320312 10.238281 C 9.027344 10.238281 9.601562 9.667969 9.601562 8.960938 C 9.601562 8.253906 9.027344 7.679688 8.320312 7.679688 Z M 14.398438 7.679688 C 13.871094 7.679688 13.441406 8.109375 13.441406 8.640625 C 13.441406 9.171875 13.871094 9.601562 14.398438 9.601562 C 14.929688 9.601562 15.359375 9.171875 15.359375 8.640625 C 15.359375 8.109375 14.929688 7.679688 14.398438 7.679688 Z M 19.839844 7.679688 C 19.488281 7.679688 19.199219 7.964844 19.199219 8.320312 C 19.199219 8.671875 19.488281 8.960938 19.839844 8.960938 C 20.195312 8.960938 20.480469 8.671875 20.480469 8.320312 C 20.480469 7.964844 20.195312 7.679688 19.839844 7.679688 Z M 16.960938 8.398438 C 16.472656 8.398438 16.078125 8.792969 16.078125 9.28125 C 16.078125 9.765625 16.472656 10.160156 16.960938 10.160156 C 17.445312 10.160156 17.839844 9.765625 17.839844 9.28125 C 17.839844 8.792969 17.445312 8.398438 16.960938 8.398438 Z M 4.800781 8.960938 C 3.917969 8.960938 3.199219 9.675781 3.199219 10.558594 C 3.199219 11.445312 3.917969 12.160156 4.800781 12.160156 C 5.683594 12.160156 6.398438 11.445312 6.398438 10.558594 C 6.398438 9.675781 5.683594 8.960938 4.800781 8.960938 Z M 19.039062 9.921875 C 18.597656 9.921875 18.238281 10.277344 18.238281 10.71875 C 18.238281 11.160156 18.597656 11.519531 19.039062 11.519531 C 19.480469 11.519531 19.839844 11.160156 19.839844 10.71875 C 19.839844 10.277344 19.480469 9.921875 19.039062 9.921875 Z M 23.023438 10.25 C 22.316406 10.25 21.742188 10.824219 21.742188 11.53125 C 21.742188 12.238281 22.316406 12.8125 23.023438 12.8125 C 23.730469 12.8125 24.300781 12.238281 24.300781 11.53125 C 24.300781 10.824219 23.730469 10.25 23.023438 10.25 Z M 26.988281 11.0625 C 26.28125 11.0625 25.707031 11.636719 25.707031 12.34375 C 25.707031 13.050781 26.28125 13.621094 26.988281 13.621094 C 27.695312 13.621094 28.269531 13.050781 28.269531 12.34375 C 28.269531 11.636719 27.695312 11.0625 26.988281 11.0625 Z M 12.800781 11.199219 C 12.179688 11.199219 11.679688 11.703125 11.679688 12.320312 C 11.679688 12.9375 12.179688 13.441406 12.800781 13.441406 C 13.417969 13.441406 13.921875 12.9375 13.921875 12.320312 C 13.921875 11.703125 13.417969 11.199219 12.800781 11.199219 Z M 9.601562 11.519531 C 8.894531 11.519531 8.320312 12.09375 8.320312 12.800781 C 8.320312 13.507812 8.894531 14.078125 9.601562 14.078125 C 10.308594 14.078125 10.878906 13.507812 10.878906 12.800781 C 10.878906 12.09375 10.308594 11.519531 9.601562 11.519531 Z M 15.679688 11.519531 C 15.148438 11.519531 14.71875 11.949219 14.71875 12.480469 C 14.71875 13.011719 15.148438 13.441406 15.679688 13.441406 C 16.210938 13.441406 16.640625 13.011719 16.640625 12.480469 C 16.640625 11.949219 16.210938 11.519531 15.679688 11.519531 Z M 30.078125 12.109375 C 29.375 12.109375 28.800781 12.683594 28.800781 13.390625 C 28.800781 14.09375 29.375 14.667969 30.078125 14.667969 C 30.785156 14.667969 31.359375 14.09375 31.359375 13.390625 C 31.359375 12.683594 30.785156 12.109375 30.078125 12.109375 Z M 18.238281 12.160156 C 17.710938 12.160156 17.28125 12.589844 17.28125 13.121094 C 17.28125 13.648438 17.710938 14.078125 18.238281 14.078125 C 18.769531 14.078125 19.199219 13.648438 19.199219 13.121094 C 19.199219 12.589844 18.769531 12.160156 18.238281 12.160156 Z M 6.078125 12.800781 C 5.195312 12.800781 4.480469 13.515625 4.480469 14.398438 C 4.480469 15.285156 5.195312 16 6.078125 16 C 6.964844 16 7.679688 15.285156 7.679688 14.398438 C 7.679688 13.515625 6.964844 12.800781 6.078125 12.800781 Z M 21.839844 13.421875 C 21.21875 13.421875 20.71875 13.925781 20.71875 14.542969 C 20.71875 15.164062 21.21875 15.664062 21.839844 15.664062 C 22.457031 15.664062 22.957031 15.164062 22.957031 14.542969 C 22.957031 13.925781 22.457031 13.421875 21.839844 13.421875 Z M 25.804688 14.234375 C 25.183594 14.234375 24.683594 14.738281 24.683594 15.355469 C 24.683594 15.972656 25.183594 16.476562 25.804688 16.476562 C 26.421875 16.476562 26.921875 15.972656 26.921875 15.355469 C 26.921875 14.738281 26.421875 14.234375 25.804688 14.234375 Z M 13.515625 15.238281 C 12.984375 15.238281 12.554688 15.667969 12.554688 16.199219 C 12.554688 16.730469 12.984375 17.160156 13.515625 17.160156 C 14.046875 17.160156 14.476562 16.730469 14.476562 16.199219 C 14.476562 15.667969 14.046875 15.238281 13.515625 15.238281 Z M 1.921875 15.359375 C 0.859375 15.359375 0 16.21875 0 17.28125 C 0 18.339844 0.859375 19.199219 1.921875 19.199219 C 2.980469 19.199219 3.839844 18.339844 3.839844 17.28125 C 3.839844 16.21875 2.980469 15.359375 1.921875 15.359375 Z M 28.816406 15.417969 C 28.195312 15.417969 27.695312 15.921875 27.695312 16.539062 C 27.695312 17.15625 28.195312 17.660156 28.816406 17.660156 C 29.433594 17.660156 29.933594 17.15625 29.933594 16.539062 C 29.933594 15.921875 29.433594 15.417969 28.816406 15.417969 Z M 11.039062 15.90625 C 10.597656 15.90625 10.238281 16.265625 10.238281 16.707031 C 10.238281 17.148438 10.597656 17.507812 11.039062 17.507812 C 11.480469 17.507812 11.839844 17.148438 11.839844 16.707031 C 11.839844 16.265625 11.480469 15.90625 11.039062 15.90625 Z M 20.261719 15.996094 C 19.730469 15.996094 19.300781 16.425781 19.300781 16.957031 C 19.300781 17.488281 19.730469 17.917969 20.261719 17.917969 C 20.789062 17.917969 21.21875 17.488281 21.21875 16.957031 C 21.21875 16.425781 20.789062 15.996094 20.261719 15.996094 Z M 8.558594 16.574219 C 8.207031 16.574219 7.921875 16.863281 7.921875 17.214844 C 7.921875 17.570312 8.207031 17.855469 8.558594 17.855469 C 8.914062 17.855469 9.199219 17.570312 9.199219 17.214844 C 9.199219 16.863281 8.914062 16.574219 8.558594 16.574219 Z M 24.226562 16.808594 C 23.695312 16.808594 23.265625 17.238281 23.265625 17.769531 C 23.265625 18.300781 23.695312 18.730469 24.226562 18.730469 C 24.757812 18.730469 25.1875 18.300781 25.1875 17.769531 C 25.1875 17.238281 24.757812 16.808594 24.226562 16.808594 Z M 14.242188 17.777344 C 13.710938 17.777344 13.28125 18.207031 13.28125 18.738281 C 13.28125 19.269531 13.710938 19.699219 14.242188 19.699219 C 14.773438 19.699219 15.203125 19.269531 15.203125 18.738281 C 15.203125 18.207031 14.773438 17.777344 14.242188 17.777344 Z M 18.425781 17.894531 C 17.894531 17.894531 17.464844 18.324219 17.464844 18.855469 C 17.464844 19.386719 17.894531 19.816406 18.425781 19.816406 C 18.957031 19.816406 19.386719 19.386719 19.386719 18.855469 C 19.386719 18.324219 18.957031 17.894531 18.425781 17.894531 Z M 27.15625 18.132812 C 26.628906 18.132812 26.199219 18.5625 26.199219 19.089844 C 26.199219 19.621094 26.628906 20.050781 27.15625 20.050781 C 27.6875 20.050781 28.117188 19.621094 28.117188 19.089844 C 28.117188 18.5625 27.6875 18.132812 27.15625 18.132812 Z M 8.089844 18.324219 C 7.738281 18.324219 7.453125 18.609375 7.453125 18.964844 C 7.453125 19.316406 7.738281 19.605469 8.089844 19.605469 C 8.445312 19.605469 8.730469 19.316406 8.730469 18.964844 C 8.730469 18.609375 8.445312 18.324219 8.089844 18.324219 Z M 10.832031 18.347656 C 10.34375 18.347656 9.953125 18.742188 9.953125 19.230469 C 9.953125 19.714844 10.34375 20.109375 10.832031 20.109375 C 11.316406 20.109375 11.710938 19.714844 11.710938 19.230469 C 11.710938 18.742188 11.316406 18.347656 10.832031 18.347656 Z M 22.390625 18.785156 C 21.90625 18.785156 21.511719 19.179688 21.511719 19.667969 C 21.511719 20.152344 21.90625 20.546875 22.390625 20.546875 C 22.878906 20.546875 23.269531 20.152344 23.269531 19.667969 C 23.269531 19.179688 22.878906 18.785156 22.390625 18.785156 Z M 20.105469 19.949219 C 19.660156 19.949219 19.304688 20.304688 19.304688 20.746094 C 19.304688 21.1875 19.660156 21.546875 20.105469 21.546875 C 20.546875 21.546875 20.902344 21.1875 20.902344 20.746094 C 20.902344 20.304688 20.546875 19.949219 20.105469 19.949219 Z M 25.324219 20.027344 C 24.792969 20.027344 24.363281 20.457031 24.363281 20.988281 C 24.363281 21.519531 24.792969 21.949219 25.324219 21.949219 C 25.851562 21.949219 26.28125 21.519531 26.28125 20.988281 C 26.28125 20.457031 25.851562 20.027344 25.324219 20.027344 Z M 8.21875 20.144531 C 7.691406 20.144531 7.261719 20.574219 7.261719 21.105469 C 7.261719 21.636719 7.691406 22.066406 8.21875 22.066406 C 8.75 22.066406 9.179688 21.636719 9.179688 21.105469 C 9.179688 20.574219 8.75 20.144531 8.21875 20.144531 Z M 15.542969 20.191406 C 14.925781 20.191406 14.421875 20.691406 14.421875 21.3125 C 14.421875 21.929688 14.925781 22.429688 15.542969 22.429688 C 16.164062 22.429688 16.664062 21.929688 16.664062 21.3125 C 16.664062 20.691406 16.164062 20.191406 15.542969 20.191406 Z M 11.558594 20.804688 C 11.027344 20.804688 10.597656 21.234375 10.597656 21.765625 C 10.597656 22.296875 11.027344 22.726562 11.558594 22.726562 C 12.085938 22.726562 12.515625 22.296875 12.515625 21.765625 C 12.515625 21.234375 12.085938 20.804688 11.558594 20.804688 Z M 23.53125 21.53125 C 23.179688 21.53125 22.890625 21.816406 22.890625 22.171875 C 22.890625 22.523438 23.179688 22.8125 23.53125 22.8125 C 23.882812 22.8125 24.171875 22.523438 24.171875 22.171875 C 24.171875 21.816406 23.882812 21.53125 23.53125 21.53125 Z M 21.78125 22 C 21.429688 22 21.140625 22.285156 21.140625 22.640625 C 21.140625 22.992188 21.429688 23.28125 21.78125 23.28125 C 22.136719 23.28125 22.421875 22.992188 22.421875 22.640625 C 22.421875 22.285156 22.136719 22 21.78125 22 Z M 17.558594 22.5625 C 16.851562 22.5625 16.28125 23.136719 16.28125 23.84375 C 16.28125 24.550781 16.851562 25.121094 17.558594 25.121094 C 18.265625 25.121094 18.839844 24.550781 18.839844 23.84375 C 18.839844 23.136719 18.265625 22.5625 17.558594 22.5625 Z M 8.945312 22.683594 C 8.417969 22.683594 7.984375 23.113281 7.984375 23.640625 C 7.984375 24.171875 8.417969 24.601562 8.945312 24.601562 C 9.476562 24.601562 9.90625 24.171875 9.90625 23.640625 C 9.90625 23.113281 9.476562 22.683594 8.945312 22.683594 Z M 12.859375 23.21875 C 12.238281 23.21875 11.738281 23.722656 11.738281 24.339844 C 11.738281 24.957031 12.238281 25.460938 12.859375 25.460938 C 13.476562 25.460938 13.980469 24.957031 13.980469 24.339844 C 13.980469 23.722656 13.476562 23.21875 12.859375 23.21875 Z M 20.703125 24.492188 C 19.820312 24.492188 19.105469 25.207031 19.105469 26.089844 C 19.105469 26.976562 19.820312 27.691406 20.703125 27.691406 C 21.589844 27.691406 22.304688 26.976562 22.304688 26.089844 C 22.304688 25.207031 21.589844 24.492188 20.703125 24.492188 Z M 10.328125 25.234375 C 9.707031 25.234375 9.207031 25.738281 9.207031 26.355469 C 9.207031 26.976562 9.707031 27.476562 10.328125 27.476562 C 10.945312 27.476562 11.449219 26.976562 11.449219 26.355469 C 11.449219 25.738281 10.945312 25.234375 10.328125 25.234375 Z M 14.875 25.589844 C 14.167969 25.589844 13.59375 26.164062 13.59375 26.871094 C 13.59375 27.578125 14.167969 28.152344 14.875 28.152344 C 15.582031 28.152344 16.152344 27.578125 16.152344 26.871094 C 16.152344 26.164062 15.582031 25.589844 14.875 25.589844 Z M 24.957031 25.777344 C 24.632812 25.777344 24.300781 25.863281 24 26.035156 C 23.082031 26.566406 22.765625 27.742188 23.296875 28.660156 C 23.652344 29.273438 24.296875 29.617188 24.960938 29.617188 C 25.289062 29.617188 25.617188 29.535156 25.921875 29.363281 C 26.839844 28.832031 27.152344 27.65625 26.621094 26.738281 C 26.265625 26.125 25.621094 25.777344 24.957031 25.777344 Z M 18.019531 27.519531 C 17.136719 27.519531 16.421875 28.238281 16.421875 29.121094 C 16.421875 30.003906 17.136719 30.71875 18.019531 30.71875 C 18.902344 30.71875 19.621094 30.003906 19.621094 29.121094 C 19.621094 28.238281 18.902344 27.519531 18.019531 27.519531 Z M 12.421875 27.746094 C 11.714844 27.746094 11.140625 28.316406 11.140625 29.023438 C 11.140625 29.730469 11.714844 30.304688 12.421875 30.304688 C 13.128906 30.304688 13.703125 29.730469 13.703125 29.023438 C 13.703125 28.316406 13.128906 27.746094 12.421875 27.746094 Z M 12.421875 27.746094 "/>
</g>
</svg>
