<?xml version="1.0" encoding="UTF-8" standalone="no"?><svg width="550" height="120" viewBox="0 0 550 120" fill="none" xmlns="http://www.w3.org/2000/svg">
<path d="M232.61 50.224C230.978 47.232 228.734 44.954 225.878 43.39C223.022 41.826 219.69 41.044 215.882 41.044C211.666 41.044 207.926 41.996 204.662 43.9C201.398 45.804 198.848 48.524 197.012 52.06C195.176 55.596 194.258 59.676 194.258 64.3C194.258 69.06 195.176 73.208 197.012 76.744C198.916 80.28 201.534 83 204.866 84.904C208.198 86.808 212.074 87.76 216.494 87.76C221.934 87.76 226.388 86.332 229.856 83.476C233.324 80.552 235.602 76.506 236.69 71.338H212.21V60.424H250.766V72.868C249.814 77.832 247.774 82.422 244.646 86.638C241.518 90.854 237.472 94.254 232.508 96.838C227.612 99.354 222.104 100.612 215.984 100.612C209.116 100.612 202.894 99.082 197.318 96.022C191.81 92.894 187.458 88.576 184.262 83.068C181.134 77.56 179.57 71.304 179.57 64.3C179.57 57.296 181.134 51.04 184.262 45.532C187.458 39.956 191.81 35.638 197.318 32.578C202.894 29.45 209.082 27.886 215.882 27.886C223.906 27.886 230.876 29.858 236.792 33.802C242.708 37.678 246.788 43.152 249.032 50.224H232.61ZM304.987 86.434H276.631L271.939 100H256.945L282.547 28.702H299.173L324.775 100H309.679L304.987 86.434ZM301.111 75.01L290.809 45.226L280.507 75.01H301.111ZM411.967 28.804V100H397.687V53.692L378.613 100H367.801L348.625 53.692V100H334.345V28.804H350.563L373.207 81.742L395.851 28.804H411.967ZM440.161 28.804V72.868C440.161 77.696 441.419 81.402 443.935 83.986C446.451 86.502 449.987 87.76 454.543 87.76C459.167 87.76 462.737 86.502 465.253 83.986C467.769 81.402 469.027 77.696 469.027 72.868V28.804H483.409V72.766C483.409 78.818 482.083 83.952 479.431 88.168C476.847 92.316 473.345 95.444 468.925 97.552C464.573 99.66 459.711 100.714 454.339 100.714C449.035 100.714 444.207 99.66 439.855 97.552C435.571 95.444 432.171 92.316 429.655 88.168C427.139 83.952 425.881 78.818 425.881 72.766V28.804H440.161ZM545.656 28.804V40.33H526.684V100H512.404V40.33H493.432V28.804H545.656Z" fill="#DBEBFD"/>
<line x1="150.5" y1="5" x2="150.5" y2="115" stroke="#DBEBFD" stroke-width="5"/>
<circle cx="60" cy="60" r="56" stroke="#DBEBFD" stroke-width="8"/>
<path d="M59.1305 34.5302C59.5139 33.8556 60.4861 33.8556 60.8695 34.5302L85.9979 78.756C86.3767 79.4226 85.8952 80.25 85.1285 80.25H34.8715C34.1048 80.25 33.6233 79.4226 34.0021 78.756L59.1305 34.5302Z" fill="#DBEBFD"/>
</svg>
