<svg width="24" height="20" viewBox="0 0 24 20" fill="none" xmlns="http://www.w3.org/2000/svg">
<path d="M20.3303 2.05593C18.7767 1.32906 17.1156 0.800797 15.3789 0.5C15.1656 0.885611 14.9164 1.40427 14.7446 1.81685C12.8985 1.53922 11.0693 1.53922 9.25716 1.81685C9.08539 1.40427 8.83055 0.885611 8.61536 0.5C6.87681 0.800797 5.21376 1.331 3.66019 2.05978C0.526643 6.79499 -0.322811 11.4126 0.101917 15.9646C2.18025 17.5166 4.19441 18.4595 6.17457 19.0764C6.66349 18.4035 7.09953 17.6883 7.47518 16.9344C6.75975 16.6626 6.07453 16.3271 5.42707 15.9376C5.59884 15.8104 5.76686 15.6773 5.92918 15.5404C9.87819 17.3875 14.1689 17.3875 18.0707 15.5404C18.235 15.6773 18.403 15.8104 18.5728 15.9376C17.9235 16.329 17.2364 16.6645 16.521 16.9363C16.8966 17.6883 17.3308 18.4055 17.8216 19.0783C19.8036 18.4614 21.8197 17.5186 23.898 15.9646C24.3964 10.6876 23.0467 6.11246 20.3303 2.05593ZM8.01318 13.1651C6.82772 13.1651 5.85555 12.0585 5.85555 10.7108C5.85555 9.36309 6.80696 8.25449 8.01318 8.25449C9.21942 8.25449 10.1916 9.36115 10.1708 10.7108C10.1727 12.0585 9.21942 13.1651 8.01318 13.1651ZM15.9867 13.1651C14.8013 13.1651 13.8291 12.0585 13.8291 10.7108C13.8291 9.36309 14.7805 8.25449 15.9867 8.25449C17.193 8.25449 18.1651 9.36115 18.1444 10.7108C18.1444 12.0585 17.193 13.1651 15.9867 13.1651Z" fill="#14A9FF"/>
</svg>
